<?xml version="1.0" encoding="UTF-8" standalone="no"?>
<!-- Created with Inkscape (http://www.inkscape.org/) -->

<svg
   xmlns:dc="http://purl.org/dc/elements/1.1/"
   xmlns:cc="http://creativecommons.org/ns#"
   xmlns:rdf="http://www.w3.org/1999/02/22-rdf-syntax-ns#"
   xmlns:svg="http://www.w3.org/2000/svg"
   xmlns="http://www.w3.org/2000/svg"
   xmlns:sodipodi="http://sodipodi.sourceforge.net/DTD/sodipodi-0.dtd"
   xmlns:inkscape="http://www.inkscape.org/namespaces/inkscape"
   version="1.1"
   id="svg2"
   xml:space="preserve"
   width="456.22266"
   height="95.279602"
   viewBox="0 0 456.22266 95.279602"
   sodipodi:docname="JM2019.svg"
   inkscape:version="0.92.4 (5da689c313, 2019-01-14)"><metadata
     id="metadata8"><rdf:RDF><cc:Work
         rdf:about=""><dc:format>image/svg+xml</dc:format><dc:type
           rdf:resource="http://purl.org/dc/dcmitype/StillImage" /><dc:title></dc:title></cc:Work></rdf:RDF></metadata><defs
     id="defs6"><clipPath
       clipPathUnits="userSpaceOnUse"
       id="clipPath18"><path
         d="M 0,71.46 H 342.167 V 0 H 0 Z"
         id="path16"
         inkscape:connector-curvature="0" /></clipPath></defs><sodipodi:namedview
     pagecolor="#ffffff"
     bordercolor="#666666"
     borderopacity="1"
     objecttolerance="10"
     gridtolerance="10"
     guidetolerance="10"
     inkscape:pageopacity="0"
     inkscape:pageshadow="2"
     inkscape:window-width="1366"
     inkscape:window-height="705"
     id="namedview4"
     showgrid="false"
     fit-margin-bottom="50.2"
     units="mm"
     inkscape:zoom="2.4116692"
     inkscape:cx="228.11133"
     inkscape:cy="86.458796"
     inkscape:window-x="-8"
     inkscape:window-y="-8"
     inkscape:window-maximized="1"
     inkscape:current-layer="g14" /><g
     id="g10"
     inkscape:groupmode="layer"
     inkscape:label="Junior Meet 2016 Logo"
     transform="matrix(1.3333333,0,0,-1.3333333,0,95.2796)"><g
       id="g12"
       style="fill:#000000"><g
         id="g14"
         clip-path="url(#clipPath18)"
         style="fill:#000000"><g
           id="g20"
           transform="translate(42,69)"
           style="fill:#ffffff"><path
             d="m 0,0 c -0.833,2.167 -3.5,1.167 -3.5,1.167 0,0 -3.663,-0.497 -4.333,-0.834 -0.405,0.458 -1.165,1.189 -2.334,1.667 -1.974,0.808 -3.762,0.341 -4.333,0.167 -1.727,-0.343 -5.767,-1.387 -9.5,-4.834 -3.62,-3.343 -4.997,-7.142 -5.5,-8.833 -1.303,-0.064 -4.96,-0.416 -8.333,-3.167 -2.495,-2.034 -3.664,-4.425 -4.167,-5.666 0.901,0.22 3.008,0.606 5.5,-0.167 2.386,-0.74 3.869,-2.153 4.5,-2.833 0.095,-2.937 0.638,-8.035 3.333,-13.667 2.578,-5.386 5.999,-8.911 8.167,-10.833 -0.422,-2.496 -0.419,-4.562 -0.333,-6 0.113,-1.896 0.193,-3.04 0.833,-4.334 1.041,-2.103 2.864,-3.188 3.833,-3.666 -0.177,1.277 -0.302,3.375 0.334,5.833 0.517,1.999 1.351,3.515 2,4.5 0.534,0.742 1.589,2.005 3.333,3 1.691,0.965 3.264,1.242 4.167,1.333 -0.517,0.568 -1.173,1.157 -2,1.667 -3.47,2.141 -7.335,1.301 -8.5,1 -1.018,2.12 -2.392,5.718 -2.5,10.333 -0.176,7.502 2.941,12.948 4.333,15 0.766,-0.805 1.635,-1.853 2.458,-3.166 1.009,-1.61 1.64,-3.125 2.042,-4.334 0.586,1.463 1.376,3.974 1.333,7.167 -0.039,2.933 -0.765,5.25 -1.333,6.667 1.818,1.409 3.725,3.013 5.667,4.833 1.324,1.241 2.545,2.47 3.666,3.667 0.389,1.444 2,2.166 1.167,4.333"
             style="fill:#ffffff;fill-opacity:1;fill-rule:nonzero;stroke:none"
             id="path22"
             inkscape:connector-curvature="0" /></g><g
           id="g24"
           transform="translate(36.7227,40.0054)"
           style="fill:#ffffff"><path
             d="m 0,0 c 0.535,1.39 2.245,0.748 2.245,0.748 0,0 2.35,-0.318 2.78,-0.534 0.26,0.293 0.747,0.762 1.497,1.069 1.266,0.518 2.414,0.219 2.78,0.107 1.072,-0.199 3.714,-0.837 6.095,-3.101 2.688,-2.556 3.363,-5.59 3.547,-6.628 0.874,-0.088 3.236,-0.446 5.333,-2.333 1.41,-1.269 2.096,-2.685 2.417,-3.5 -0.754,0.145 -1.892,0.273 -3.25,0.083 -1.256,-0.175 -2.249,-0.56 -2.915,-0.88 -0.378,-2.205 -1.12,-5.182 -2.668,-8.453 -1.506,-3.181 -3.277,-5.592 -4.71,-7.264 0.271,-1.601 0.269,-2.926 0.214,-3.849 -0.069,-1.16 -0.142,-2.004 -0.535,-2.78 -1.157,-2.286 -4.527,-2.632 -5.219,-2.69 0.107,0.197 1.739,3.321 0,6.416 -1.496,2.662 -4.294,3.187 -4.667,3.25 0.511,0.424 1.174,0.879 2,1.25 2.469,1.111 4.812,0.767 5.855,0.541 0.294,2.417 0.451,5.434 0.145,8.876 -0.253,2.842 -0.763,5.325 -1.321,7.376 -0.487,-0.231 -1.289,-0.69 -2.012,-1.543 -0.941,-1.109 -1.232,-2.275 -1.334,-2.833 -0.25,0.264 -1.761,1.919 -1.583,4.417 0.17,2.38 1.749,3.773 2.042,4.022 C 5.57,-7.328 4.346,-6.299 3.101,-5.132 2.251,-4.336 1.468,-3.548 0.748,-2.78 0.499,-1.853 -0.535,-1.39 0,0"
             style="fill:#ffffff;fill-opacity:1;fill-rule:nonzero;stroke:none"
             id="path26"
             inkscape:connector-curvature="0" /></g><g
           aria-label="Chester-le-Street
Junior Meet "
           transform="matrix(1,0,0,-1,70.5,41.8076)"
           style="font-variant:normal;font-weight:normal;font-stretch:normal;font-size:36px;font-family:'Open Sans';-inkscape-font-specification:OpenSans;writing-mode:lr-tb;fill:#000000;fill-opacity:1;fill-rule:nonzero;stroke:none"
           id="text32"><path
             d="m 14.537109,-23.396484 q -4.236328,0 -6.6972653,2.830078 -2.4433593,2.8125 -2.4433593,7.716797 0,5.0449215 2.3554687,7.8046871 2.3730469,2.7421875 6.7499999,2.7421875 2.689453,0 6.134766,-0.9667969 v 2.61914068 q -2.671875,1.00195312 -6.591797,1.00195312 -5.6777345,0 -8.7714845,-3.4453125 -3.0761719,-3.4453125 -3.0761719,-9.791016 0,-3.972656 1.4765625,-6.960937 1.4941406,-2.988281 4.2890625,-4.605469 2.8125004,-1.617187 6.6093754,-1.617187 4.042968,0 7.066406,1.476562 l -1.265625,2.566406 q -2.917969,-1.371093 -5.835938,-1.371093 z"
             style="letter-spacing:-0.67500001px;fill:#ffffff"
             id="path52" /><path
             d="m 38.313282,0 v -12.462891 q 0,-2.355468 -1.072266,-3.515625 -1.072265,-1.160156 -3.357421,-1.160156 -3.041016,0 -4.447266,1.652344 -1.388672,1.652344 -1.388672,5.414062 V 0 h -2.917969 v -27.351562 h 2.917969 v 8.279296 q 0,1.494141 -0.140625,2.478516 h 0.175781 q 0.861328,-1.388672 2.44336,-2.179687 1.599609,-0.808594 3.638672,-0.808594 3.533203,0 5.291015,1.6875 1.775391,1.669922 1.775391,5.326172 V 0 Z"
             style="letter-spacing:-0.67500001px;fill:#ffffff"
             id="path54" /><path
             d="m 54.671486,0.3515625 q -4.271484,0 -6.75,-2.6015625 -2.460938,-2.6015625 -2.460938,-7.2246094 0,-4.6582036 2.285157,-7.4003906 2.302734,-2.742187 6.169922,-2.742187 3.621093,0 5.730468,2.390625 2.109375,2.373046 2.109375,6.27539 v 1.8457032 H 48.483986 q 0.08789,3.3925782 1.705078,5.1503907 1.634766,1.7578125 4.587891,1.7578125 3.111328,0 6.152343,-1.3007813 v 2.60156252 Q 59.382423,-0.22851563 57.993752,0.05273437 56.622658,0.3515625 54.671486,0.3515625 Z M 53.88047,-17.173828 q -2.320312,0 -3.708984,1.511719 -1.371094,1.511718 -1.617188,4.183593 h 10.072266 q 0,-2.759765 -1.230469,-4.21875 -1.230468,-1.476562 -3.515625,-1.476562 z"
             style="letter-spacing:-0.67500001px;fill:#ffffff"
             id="path56" /><path
             d="m 78.465233,-5.2558594 q 0,2.6894531 -2.003906,4.1484375 -2.003907,1.4589844 -5.625,1.4589844 -3.832032,0 -5.976563,-1.21289063 V -3.5683594 q 1.388672,0.703125 2.970703,1.1074219 1.59961,0.4042969 3.076172,0.4042969 2.285156,0 3.515625,-0.7207032 1.230469,-0.7382812 1.230469,-2.2324218 0,-1.125 -0.984375,-1.9160156 -0.966797,-0.8085938 -3.796875,-1.8984376 -2.689453,-1.0019531 -3.832031,-1.7402342 -1.125,-0.75586 -1.6875,-1.705078 -0.544922,-0.949219 -0.544922,-2.267578 0,-2.355469 1.916015,-3.708985 1.916016,-1.371093 5.25586,-1.371093 3.111328,0 6.082031,1.265625 l -1.037109,2.373046 q -2.900391,-1.195312 -5.25586,-1.195312 -2.074219,0 -3.128906,0.650391 -1.054688,0.65039 -1.054688,1.792968 0,0.773438 0.386719,1.31836 0.404297,0.544921 1.283203,1.037109 0.878907,0.492187 3.375,1.423828 3.427735,1.248047 4.623047,2.513672 1.212891,1.265625 1.212891,3.1816406 z"
             style="letter-spacing:-0.67500001px;fill:#ffffff"
             id="path58" /><path
             d="m 88.741409,-2.0566406 q 0.773438,0 1.494141,-0.1054688 0.720703,-0.1230469 1.142578,-0.2460937 v 2.23242185 q -0.474609,0.22851562 -1.40625,0.36914062 -0.914062,0.15820313 -1.652344,0.15820313 -5.589843,0 -5.589843,-5.8886719 V -16.998047 h -2.759766 v -1.40625 l 2.759766,-1.21289 1.230468,-4.113282 h 1.6875 v 4.464844 h 5.589844 v 2.267578 h -5.589844 v 11.3378908 q 0,1.7402343 0.826172,2.6718749 0.826172,0.9316407 2.267578,0.9316407 z"
             style="letter-spacing:-0.67500001px;fill:#ffffff"
             id="path60" /><path
             d="m 102.70898,0.3515625 q -4.27148,0 -6.749996,-2.6015625 -2.460937,-2.6015625 -2.460937,-7.2246094 0,-4.6582036 2.285156,-7.4003906 2.302734,-2.742187 6.169927,-2.742187 3.62109,0 5.73046,2.390625 2.10938,2.373046 2.10938,6.27539 v 1.8457032 H 96.521484 q 0.08789,3.3925782 1.705078,5.1503907 1.634766,1.7578125 4.587888,1.7578125 3.11133,0 6.15235,-1.3007813 v 2.60156252 q -1.54688,0.66796875 -2.93555,0.94921875 -1.37109,0.29882813 -3.32227,0.29882813 z m -0.79101,-17.5253905 q -2.320314,0 -3.708986,1.511719 -1.371093,1.511718 -1.617187,4.183593 h 10.072263 q 0,-2.759765 -1.23047,-4.21875 -1.23046,-1.476562 -3.51562,-1.476562 z"
             style="letter-spacing:-0.67500001px;fill:#ffffff"
             id="path62" /><path
             d="m 122.86406,-19.617187 q 1.2832,0 2.30273,0.210937 l -0.40429,2.707031 q -1.19532,-0.263672 -2.10938,-0.263672 -2.33789,0 -4.00781,1.898438 -1.65234,1.898437 -1.65234,4.728515 V 0 H 114.075 v -19.265625 h 2.4082 l 0.33398,3.568359 h 0.14063 q 1.07227,-1.880859 2.58398,-2.90039 1.51172,-1.019531 3.32227,-1.019531 z"
             style="letter-spacing:-0.67500001px;fill:#ffffff"
             id="path64" /><path
             d="m 126.47813,-8.3144531 v -2.6718749 h 8.63086 v 2.6718749 z"
             style="letter-spacing:-0.67500001px;fill:#ffffff"
             id="path66" /><path
             d="m 141.93985,0 h -2.91797 v -27.351562 h 2.91797 z"
             style="letter-spacing:-0.67500001px;fill:#ffffff"
             id="path68" /><path
             d="m 155.62617,0.3515625 q -4.27148,0 -6.75,-2.6015625 -2.46093,-2.6015625 -2.46093,-7.2246094 0,-4.6582036 2.28515,-7.4003906 2.30274,-2.742187 6.16993,-2.742187 3.62109,0 5.73046,2.390625 2.10938,2.373046 2.10938,6.27539 v 1.8457032 h -13.27149 q 0.0879,3.3925782 1.70508,5.1503907 1.63477,1.7578125 4.58789,1.7578125 3.11133,0 6.15235,-1.3007813 v 2.60156252 q -1.54688,0.66796875 -2.93555,0.94921875 -1.37109,0.29882813 -3.32227,0.29882813 z m -0.79101,-17.5253905 q -2.32031,0 -3.70899,1.511719 -1.37109,1.511718 -1.61718,4.183593 h 10.07226 q 0,-2.759765 -1.23047,-4.21875 -1.23046,-1.476562 -3.51562,-1.476562 z"
             style="letter-spacing:-0.67500001px;fill:#ffffff"
             id="path70" /><path
             d="m 165.375,-8.3144531 v -2.6718749 h 8.63086 v 2.6718749 z"
             style="letter-spacing:-0.67500001px;fill:#ffffff"
             id="path72" /><path
             d="m 192.86015,-6.8378906 q 0,3.3925781 -2.46093,5.2910156 -2.46094,1.8984375 -6.67969,1.8984375 -4.57031,0 -7.03125,-1.17773438 V -3.7089844 q 1.58203,0.6679688 3.44531,1.0546875 1.86328,0.3867188 3.69141,0.3867188 2.98828,0 4.5,-1.125 1.51172,-1.1425781 1.51172,-3.1640625 0,-1.3359375 -0.54493,-2.1796875 -0.52734,-0.8613282 -1.79296,-1.5820309 -1.24805,-0.720704 -3.81446,-1.634766 -3.58594,-1.283203 -5.13281,-3.041016 -1.5293,-1.757812 -1.5293,-4.58789 0,-2.970703 2.23242,-4.728516 2.23243,-1.757812 5.90625,-1.757812 3.83204,0 7.04883,1.40625 l -0.93164,2.601562 q -3.18164,-1.335937 -6.1875,-1.335937 -2.37304,0 -3.70898,1.019531 -1.33594,1.019531 -1.33594,2.830078 0,1.335938 0.49219,2.197266 0.49219,0.84375 1.65234,1.564453 1.17774,0.703125 3.58594,1.564453 4.04297,1.441406 5.55469,3.09375 1.52929,1.6523436 1.52929,4.2890624 z"
             style="letter-spacing:-0.67500001px;fill:#ffffff"
             id="path74" /><path
             d="m 203.22421,-2.0566406 q 0.77344,0 1.49414,-0.1054688 0.72071,-0.1230469 1.14258,-0.2460937 v 2.23242185 q -0.47461,0.22851562 -1.40625,0.36914062 -0.91406,0.15820313 -1.65234,0.15820313 -5.58985,0 -5.58985,-5.8886719 V -16.998047 h -2.75976 v -1.40625 l 2.75976,-1.21289 1.23047,-4.113282 h 1.6875 v 4.464844 h 5.58985 v 2.267578 h -5.58985 v 11.3378908 q 0,1.7402343 0.82617,2.6718749 0.82618,0.9316407 2.26758,0.9316407 z"
             style="letter-spacing:-0.67500001px;fill:#ffffff"
             id="path76" /><path
             d="m 217.84219,-19.617187 q 1.28321,0 2.30274,0.210937 l -0.4043,2.707031 q -1.19531,-0.263672 -2.10937,-0.263672 -2.33789,0 -4.00782,1.898438 -1.65234,1.898437 -1.65234,4.728515 V 0 h -2.91797 v -19.265625 h 2.4082 l 0.33399,3.568359 h 0.14062 q 1.07227,-1.880859 2.58399,-2.90039 1.51172,-1.019531 3.32226,-1.019531 z"
             style="letter-spacing:-0.67500001px;fill:#ffffff"
             id="path78" /><path
             d="m 231.21211,0.3515625 q -4.27148,0 -6.75,-2.6015625 -2.46094,-2.6015625 -2.46094,-7.2246094 0,-4.6582036 2.28516,-7.4003906 2.30274,-2.742187 6.16992,-2.742187 3.6211,0 5.73047,2.390625 2.10938,2.373046 2.10938,6.27539 v 1.8457032 h -13.27149 q 0.0879,3.3925782 1.70508,5.1503907 1.63477,1.7578125 4.58789,1.7578125 3.11133,0 6.15234,-1.3007813 v 2.60156252 q -1.54687,0.66796875 -2.93554,0.94921875 -1.3711,0.29882813 -3.32227,0.29882813 z M 230.4211,-17.173828 q -2.32032,0 -3.70899,1.511719 -1.37109,1.511718 -1.61719,4.183593 h 10.07227 q 0,-2.759765 -1.23047,-4.21875 -1.23047,-1.476562 -3.51562,-1.476562 z"
             style="letter-spacing:-0.67500001px;fill:#ffffff"
             id="path80" /><path
             d="m 250.7168,0.3515625 q -4.27149,0 -6.75,-2.6015625 -2.46094,-2.6015625 -2.46094,-7.2246094 0,-4.6582036 2.28516,-7.4003906 2.30273,-2.742187 6.16992,-2.742187 3.62109,0 5.73047,2.390625 2.10937,2.373046 2.10937,6.27539 v 1.8457032 H 244.5293 q 0.0879,3.3925782 1.70507,5.1503907 1.63477,1.7578125 4.5879,1.7578125 3.11132,0 6.15234,-1.3007813 v 2.60156252 q -1.54688,0.66796875 -2.93555,0.94921875 -1.37109,0.29882813 -3.32226,0.29882813 z m -0.79102,-17.5253905 q -2.32031,0 -3.70898,1.511719 -1.3711,1.511718 -1.61719,4.183593 h 10.07226 q 0,-2.759765 -1.23046,-4.21875 -1.23047,-1.476562 -3.51563,-1.476562 z"
             style="letter-spacing:-0.67500001px;fill:#ffffff"
             id="path82" /><path
             d="m 268.30548,-2.0566406 q 0.77344,0 1.49414,-0.1054688 0.7207,-0.1230469 1.14258,-0.2460937 v 2.23242185 q -0.47461,0.22851562 -1.40625,0.36914062 -0.91406,0.15820313 -1.65234,0.15820313 -5.58985,0 -5.58985,-5.8886719 V -16.998047 H 259.534 v -1.40625 l 2.75976,-1.21289 1.23047,-4.113282 h 1.6875 v 4.464844 h 5.58984 v 2.267578 h -5.58984 v 11.3378908 q 0,1.7402343 0.82617,2.6718749 0.82617,0.9316407 2.26758,0.9316407 z"
             style="letter-spacing:-0.67500001px;fill:#ffffff"
             id="path84" /><path
             d="m 4.7930627,39.419579 q -1.6523438,0 -2.6015625,-0.47461 v -2.548828 q 1.2480469,0.351563 2.6015625,0.351563 1.7402344,0 2.6367187,-1.054688 Q 8.3438439,34.638329 8.3438439,32.652 V 6.9527817 H 11.332125 V 32.405907 q 0,3.339843 -1.6874998,5.167968 -1.6875,1.845704 -4.8515625,1.845704 z"
             style="fill:#ffffff"
             id="path86" /><path
             d="m 19.299937,13.386375 v 12.498047 q 0,2.355469 1.072266,3.515625 1.072265,1.160157 3.357422,1.160157 3.023437,0 4.412109,-1.652344 1.40625,-1.652344 1.40625,-5.396485 v -10.125 h 2.917969 V 32.652 H 30.05775 l -0.421875,-2.583984 h -0.158203 q -0.896485,1.423828 -2.496094,2.179688 -1.582031,0.755859 -3.621094,0.755859 -3.515625,0 -5.273437,-1.669922 -1.740235,-1.669922 -1.740235,-5.34375 V 13.386375 Z"
             style="fill:#ffffff"
             id="path88" /><path
             d="M 50.693344,32.652 V 20.18911 q 0,-2.355469 -1.072266,-3.515625 -1.072265,-1.160156 -3.357421,-1.160156 -3.023438,0 -4.429688,1.634765 -1.40625,1.634766 -1.40625,5.396485 V 32.652 H 37.50975 V 13.386375 h 2.373047 l 0.47461,2.636719 h 0.140625 q 0.896484,-1.423828 2.513671,-2.197265 1.617188,-0.791016 3.603516,-0.791016 3.480469,0 5.238281,1.6875 1.757813,1.669922 1.757813,5.361328 V 32.652 Z"
             style="fill:#ffffff"
             id="path90" /><path
             d="M 61.379719,32.652 H 58.46175 V 13.386375 h 2.917969 z M 58.215656,8.1656723 q 0,-1.0019531 0.492188,-1.4589844 0.492187,-0.4746093 1.230469,-0.4746093 0.703125,0 1.21289,0.4746093 0.509766,0.4746094 0.509766,1.4589844 0,0.984375 -0.509766,1.4765625 -0.509765,0.4746092 -1.21289,0.4746092 -0.738282,0 -1.230469,-0.4746092 -0.492188,-0.4921875 -0.492188,-1.4765625 z"
             style="fill:#ffffff"
             id="path92" /><path
             d="m 83.046658,23.00161 q 0,4.710937 -2.373047,7.365234 -2.373047,2.636719 -6.556641,2.636719 -2.583984,0 -4.587891,-1.212891 -2.003906,-1.21289 -3.09375,-3.480468 -1.089843,-2.267579 -1.089843,-5.308594 0,-4.710938 2.355468,-7.330078 2.355469,-2.636719 6.539063,-2.636719 4.042969,0 6.416016,2.689453 2.390625,2.689453 2.390625,7.277344 z m -14.677735,0 q 0,3.691406 1.476563,5.625 1.476562,1.933594 4.341797,1.933594 2.865234,0 4.341796,-1.916016 1.494141,-1.933594 1.494141,-5.642578 0,-3.673828 -1.494141,-5.572266 -1.476562,-1.916015 -4.376953,-1.916015 -2.865234,0 -4.324218,1.880859 -1.458985,1.880859 -1.458985,5.607422 z"
             style="fill:#ffffff"
             id="path94" /><path
             d="m 95.798813,13.034813 q 1.283203,0 2.302734,0.210937 l -0.404297,2.707032 q -1.195312,-0.263672 -2.109375,-0.263672 -2.33789,0 -4.007812,1.898437 -1.652344,1.898438 -1.652344,4.728516 V 32.652 H 87.00975 V 13.386375 h 2.408203 l 0.333985,3.56836 h 0.140625 q 1.072265,-1.88086 2.583984,-2.900391 1.511719,-1.019531 3.322266,-1.019531 z"
             style="fill:#ffffff"
             id="path96" /><path
             d="M 120.56625,32.652 111.8475,9.8707504 h -0.14062 q 0.24609,2.7070316 0.24609,6.4335936 V 32.652 h -2.75976 V 6.9527817 h 4.5 L 121.83188,28.152 h 0.14062 l 8.20899,-21.1992183 h 4.46484 V 32.652 h -2.98828 V 16.093407 q 0,-2.847657 0.24609,-6.1875003 h -0.14062 L 122.97446,32.652 Z"
             style="fill:#ffffff"
             id="path98" /><path
             d="m 148.24843,33.003563 q -4.27149,0 -6.75,-2.601563 -2.46094,-2.601562 -2.46094,-7.224609 0,-4.658203 2.28516,-7.400391 2.30273,-2.742187 6.16992,-2.742187 3.62109,0 5.73047,2.390625 2.10937,2.373047 2.10937,6.275391 v 1.845703 h -13.27148 q 0.0879,3.392578 1.70508,5.15039 1.63476,1.757813 4.58789,1.757813 3.11133,0 6.15234,-1.300781 v 2.601562 q -1.54687,0.667969 -2.93555,0.949219 -1.37109,0.298828 -3.32226,0.298828 z m -0.79102,-17.525391 q -2.32031,0 -3.70898,1.511719 -1.3711,1.511719 -1.61719,4.183594 h 10.07227 q 0,-2.759766 -1.23047,-4.21875 -1.23047,-1.476563 -3.51563,-1.476563 z"
             style="fill:#ffffff"
             id="path100" /><path
             d="m 167.29242,33.003563 q -4.27148,0 -6.75,-2.601563 -2.46094,-2.601562 -2.46094,-7.224609 0,-4.658203 2.28516,-7.400391 2.30273,-2.742187 6.16992,-2.742187 3.62109,0 5.73047,2.390625 2.10937,2.373047 2.10937,6.275391 v 1.845703 h -13.27148 q 0.0879,3.392578 1.70508,5.15039 1.63476,1.757813 4.58789,1.757813 3.11133,0 6.15234,-1.300781 v 2.601562 q -1.54687,0.667969 -2.93554,0.949219 -1.3711,0.298828 -3.32227,0.298828 z M 166.5014,15.478172 q -2.32031,0 -3.70898,1.511719 -1.37109,1.511719 -1.61719,4.183594 h 10.07227 q 0,-2.759766 -1.23047,-4.21875 -1.23047,-1.476563 -3.51563,-1.476563 z"
             style="fill:#ffffff"
             id="path102" /><path
             d="m 184.42041,30.59536 q 0.77344,0 1.49414,-0.105469 0.7207,-0.123047 1.14258,-0.246094 v 2.232422 q -0.47461,0.228516 -1.40625,0.369141 -0.91406,0.158203 -1.65234,0.158203 -5.58985,0 -5.58985,-5.888672 V 15.653954 h -2.75976 v -1.40625 l 2.75976,-1.212891 1.23047,-4.1132813 h 1.6875 v 4.4648433 h 5.58984 v 2.267579 h -5.58984 v 11.33789 q 0,1.740235 0.82617,2.671875 0.82617,0.931641 2.26758,0.931641 z"
             style="fill:#ffffff"
             id="path104" /></g><g
           aria-label="2019"
           transform="matrix(1,0,0,-1,265.368,9.1556)"
           style="font-style:italic;font-variant:normal;font-weight:600;font-stretch:normal;font-size:36px;font-family:'Open Sans Semibold';-inkscape-font-specification:OpenSans-SemiboldItalic;writing-mode:lr-tb;fill:#000000;fill-opacity:1;fill-rule:nonzero;stroke:none"
           id="text36"><path
             d="M 16.013672,0 H -0.31640625 l 0.6328125,-3.1640625 8.27929685,-7.4179685 q 3.0937499,-2.794922 4.1835939,-4.060547 1.107422,-1.265625 1.599609,-2.337891 0.492188,-1.089843 0.492188,-2.320312 0,-1.494141 -0.878906,-2.355469 -0.861329,-0.878906 -2.44336,-0.878906 -1.230469,0 -2.4433592,0.527344 -1.2128907,0.527343 -2.9882813,1.916015 l -2.0214844,-2.8125 q 2.109375,-1.705078 4.0605469,-2.425781 1.951172,-0.738281 4.007813,-0.738281 3.18164,0 5.062499,1.634765 1.88086,1.634766 1.88086,4.41211 0,1.898437 -0.685547,3.533203 -0.685547,1.634765 -2.162109,3.357422 -1.476563,1.705078 -4.992188,4.7109371 l -5.4667968,4.640625 v 0.140625 H 16.734375 Z"
             style="font-style:italic;font-variant:normal;font-weight:600;font-stretch:normal;font-family:'Open Sans';-inkscape-font-specification:'Open Sans Semi-Bold Italic';letter-spacing:-0.67500001px;fill:#ffffff"
             id="path107" /><path
             d="m 38.489063,-17.789062 q 0,5.378906 -1.388672,9.6152339 -1.388671,4.21875 -3.849609,6.3808594 -2.460937,2.1445312 -5.712891,2.1445312 -3.410156,0 -5.097656,-2.2324219 -1.669922,-2.25 -1.669922,-6.3984375 0,-4.9921871 1.458985,-9.2460941 1.458984,-4.253906 3.902343,-6.416015 2.460938,-2.16211 5.660157,-2.16211 3.287109,0 4.992187,2.091797 1.705078,2.074219 1.705078,6.222657 z m -7.03125,-4.851563 q -1.705078,0 -3.164062,1.96875 -1.458985,1.96875 -2.408203,5.501953 -0.931641,3.515625 -0.931641,6.9257814 0,2.5136719 0.685547,3.8320312 0.685547,1.3183594 2.267578,1.3183594 1.757813,0 3.199219,-1.9863281 1.458984,-2.0039063 2.320312,-5.5722659 0.878907,-3.568359 0.878907,-7.277343 0,-4.710938 -2.847657,-4.710938 z"
             style="font-style:italic;font-variant:normal;font-weight:600;font-stretch:normal;font-family:'Open Sans';-inkscape-font-specification:'Open Sans Semi-Bold Italic';letter-spacing:-0.67500001px;fill:#ffffff"
             id="path109" /><path
             d="m 49.503517,0 h -4.183594 l 3.322266,-15.292969 q 0.492188,-2.636718 1.441406,-5.695312 -1.001953,0.966797 -2.373047,1.792969 l -3.287109,2.05664 -1.863281,-2.988281 8.929687,-5.572266 h 3.480469 z"
             style="font-style:italic;font-variant:normal;font-weight:600;font-stretch:normal;font-family:'Open Sans';-inkscape-font-specification:'Open Sans Semi-Bold Italic';letter-spacing:-0.67500001px;fill:#ffffff"
             id="path111" /><path
             d="m 76.42617,-17.894531 q 0,3.603515 -1.019531,7.294922 -1.019531,3.6738278 -2.689453,6.1347653 -1.652344,2.4433593 -3.972656,3.63867182 -2.302735,1.17773438 -5.449219,1.17773438 -2.337891,0 -4.21875,-0.5625 v -3.6386719 q 2.126953,0.7558594 4.148437,0.7558594 3.304688,0 5.378907,-2.1621094 2.074218,-2.1621093 3.111328,-6.8378906 h -0.105469 q -1.986328,2.8125 -5.361328,2.8125 -2.900391,0 -4.5,-1.792969 -1.582031,-1.792969 -1.582031,-5.0625 0,-2.742187 1.177734,-5.080078 1.177734,-2.33789 3.269531,-3.585937 2.109375,-1.265625 4.833985,-1.265625 3.375,0 5.167968,2.109375 1.810547,2.091797 1.810547,6.064453 z m -7.294922,-4.746094 q -1.441406,0 -2.566406,0.826172 -1.107422,0.826172 -1.705078,2.285156 -0.597656,1.458985 -0.597656,3.146485 0,1.845703 0.808594,2.812499 0.808593,0.966797 2.355468,0.966797 2.056641,0 3.480469,-1.652343 1.423828,-1.652344 1.423828,-4.21875 0,-1.898438 -0.84375,-3.023438 -0.84375,-1.142578 -2.355469,-1.142578 z"
             style="font-style:italic;font-variant:normal;font-weight:600;font-stretch:normal;font-family:'Open Sans';-inkscape-font-specification:'Open Sans Semi-Bold Italic';letter-spacing:-0.67500001px;fill:#ffffff"
             id="path113" /></g><g
           aria-label="==--"
           transform="scale(1,-1)"
           style="font-style:normal;font-weight:normal;font-size:30px;line-height:1.25;font-family:sans-serif;letter-spacing:0px;word-spacing:0px;fill:#000000;fill-opacity:1;stroke:none;stroke-width:0.75"
           id="text50"><path
             d="m 266.62091,-137.64759 h 18.7793 v 2.46094 h -18.7793 z m 0,5.97656 h 18.7793 v 2.49024 h -18.7793 z"
             style="fill:#000000;stroke-width:0.75"
             id="path116" /><path
             d="m 291.75763,-137.64759 h 18.7793 v 2.46094 h -18.7793 z m 0,5.97656 h 18.7793 v 2.49024 h -18.7793 z"
             style="fill:#000000;stroke-width:0.75"
             id="path118" /><path
             d="m 315.18048,-133.44349 h 7.89551 v 2.40234 h -7.89551 z"
             style="fill:#000000;stroke-width:0.75"
             id="path120" /><path
             d="m 326.02032,-133.44349 h 7.89551 v 2.40234 h -7.89551 z"
             style="fill:#000000;stroke-width:0.75"
             id="path122" /></g></g></g></g></svg>