<?xml version="1.0" encoding="UTF-8" standalone="no"?>
<svg
   xmlns:dc="http://purl.org/dc/elements/1.1/"
   xmlns:cc="http://creativecommons.org/ns#"
   xmlns:rdf="http://www.w3.org/1999/02/22-rdf-syntax-ns#"
   xmlns:svg="http://www.w3.org/2000/svg"
   xmlns="http://www.w3.org/2000/svg"
   id="svg8"
   version="1.1"
   viewBox="0 0 207.47441 20.740459"
   height="20.740459mm"
   width="207.47441mm">
  <defs
     id="defs2" />
  <metadata
     id="metadata5">
    <rdf:RDF>
      <cc:Work
         rdf:about="">
        <dc:format>image/svg+xml</dc:format>
        <dc:type
           rdf:resource="http://purl.org/dc/dcmitype/StillImage" />
        <dc:title></dc:title>
      </cc:Work>
    </rdf:RDF>
  </metadata>
  <g
     transform="translate(-1.7689298,-108.01492)"
     id="layer1">
    <g
       id="text4506"
       style="font-style:normal;font-variant:normal;font-weight:normal;font-stretch:normal;font-size:28.48963165px;line-height:1.25;font-family:Lato;-inkscape-font-specification:Lato;letter-spacing:0px;word-spacing:0px;fill:#000000;fill-opacity:1;stroke:none;stroke-width:0.71224076"
       aria-label="Burns Meet 2020">
      <path
         id="path4508"
         style="font-style:normal;font-variant:normal;font-weight:bold;font-stretch:normal;font-family:'PT Sans';-inkscape-font-specification:'PT Sans Bold';fill:#ffffff;stroke-width:0.71224076"
         d="m 15.187546,113.05759 q 0,0.74073 -0.199427,1.48146 -0.170938,0.74073 -0.598282,1.3675 -0.427345,0.59828 -1.111096,1.08261 -0.683751,0.45583 -1.652399,0.68375 v 0.17094 q 0.854689,0.14245 1.623909,0.48432 0.76922,0.34188 1.339013,0.94016 0.569793,0.59828 0.883179,1.45297 0.341875,0.85469 0.341875,2.02276 0,1.53844 -0.655261,2.67803 -0.655262,1.1111 -1.766357,1.82334 -1.082606,0.71224 -2.478598,1.05411 -1.3959924,0.34188 -2.8774532,0.34188 -0.4843237,0 -1.2535438,0 -0.7407304,0 -1.623909,-0.057 -0.8546889,-0.0285 -1.7663572,-0.11396 -0.8831785,-0.0855 -1.623909,-0.25641 v -19.65784 q 0.541303,-0.0855 1.2250542,-0.17094 0.7122408,-0.0855 1.5099505,-0.14245 0.7977097,-0.057 1.623909,-0.0855 0.8546889,-0.0285 1.6808882,-0.0285 1.395992,0 2.7065153,0.22792 1.339012,0.19943 2.364639,0.74073 1.054117,0.5413 1.680888,1.50995 0.626772,0.96865 0.626772,2.45011 z m -7.1224076,12.3645 q 0.7122408,0 1.3675024,-0.17094 0.6837512,-0.17094 1.1965642,-0.51281 0.512814,-0.37037 0.8262,-0.91167 0.313386,-0.5413 0.313386,-1.28203 0,-0.94016 -0.370366,-1.48146 -0.370365,-0.54131 -0.968647,-0.8262 -0.5982824,-0.31339 -1.3390128,-0.39886 -0.7407304,-0.0855 -1.4814609,-0.0855 H 5.5295612 v 5.4985 q 0.1424482,0.057 0.4558341,0.0855 0.313386,0.0285 0.6552616,0.057 0.3703652,0 0.7407304,0.0285 0.3988548,0 0.6837511,0 z M 6.783105,116.78973 q 0.3988549,0 0.9116682,-0.0285 0.541303,-0.0285 0.8831786,-0.0855 1.082606,-0.34187 1.8518262,-1.02562 0.79771,-0.68376 0.79771,-1.79485 0,-0.74073 -0.284897,-1.22506 -0.284896,-0.48432 -0.76922,-0.76922 -0.4558339,-0.28489 -1.0541162,-0.39885 -0.5982823,-0.11396 -1.2535438,-0.11396 -0.7407304,0 -1.3675023,0.0285 -0.6267719,0.0285 -0.9686475,0.0855 v 5.32756 z" />
      <path
         id="path4510"
         style="font-style:normal;font-variant:normal;font-weight:bold;font-stretch:normal;font-family:'PT Sans';-inkscape-font-specification:'PT Sans Bold';fill:#ffffff;stroke-width:0.71224076"
         d="m 22.10474,114.11171 v 8.09105 q 0,1.73787 0.398855,2.50709 0.427344,0.76922 1.623909,0.76922 1.054116,0 1.737867,-0.62677 0.712241,-0.62677 1.054117,-1.53844 v -9.20215 h 3.703652 v 9.91439 q 0,1.16807 0.113958,2.30766 0.113959,1.11109 0.341876,2.02276 H 28.28699 l -0.655262,-2.10823 H 27.51777 q -0.655262,1.0826 -1.823337,1.79485 -1.168074,0.71224 -2.763494,0.71224 -1.082606,0 -1.937295,-0.2849 -0.854689,-0.2849 -1.424481,-0.94016 -0.569793,-0.65526 -0.883179,-1.76635 -0.284896,-1.1111 -0.284896,-2.79199 v -8.86027 z" />
      <path
         id="path4512"
         style="font-style:normal;font-variant:normal;font-weight:bold;font-stretch:normal;font-family:'PT Sans';-inkscape-font-specification:'PT Sans Bold';fill:#ffffff;stroke-width:0.71224076"
         d="m 41.708724,117.58744 q -0.883179,-0.31339 -1.595419,-0.31339 -0.997138,0 -1.680889,0.54131 -0.655261,0.51281 -0.883178,1.33901 v 9.20215 h -3.703652 v -14.24481 h 2.877452 l 0.427345,1.88031 h 0.113958 q 0.484324,-1.05411 1.310523,-1.62391 0.8262,-0.56979 1.937295,-0.56979 0.740731,0 1.680889,0.31339 z" />
      <path
         id="path4514"
         style="font-style:normal;font-variant:normal;font-weight:bold;font-stretch:normal;font-family:'PT Sans';-inkscape-font-specification:'PT Sans Bold';fill:#ffffff;stroke-width:0.71224076"
         d="m 52.579297,128.35652 v -8.09105 q 0,-1.73787 -0.512813,-2.50709 -0.484324,-0.76922 -1.680888,-0.76922 -1.054117,0 -1.794847,0.62677 -0.712241,0.59828 -1.025627,1.50995 v 9.23064 H 43.86147 v -14.24481 h 2.934432 l 0.427345,1.88031 h 0.113958 q 0.655262,-0.91167 1.737868,-1.59542 1.082606,-0.68375 2.791983,-0.68375 1.054117,0 1.880316,0.2849 0.826199,0.28489 1.395992,0.94016 0.569793,0.65526 0.854689,1.79484 0.284896,1.1111 0.284896,2.7635 v 8.86027 z" />
      <path
         id="path4516"
         style="font-style:normal;font-variant:normal;font-weight:bold;font-stretch:normal;font-family:'PT Sans';-inkscape-font-specification:'PT Sans Bold';fill:#ffffff;stroke-width:0.71224076"
         d="m 65.283448,124.42495 q 0,-0.56979 -0.484324,-0.91167 -0.484324,-0.34187 -1.196565,-0.62677 -0.71224,-0.28489 -1.566929,-0.56979 -0.854689,-0.31339 -1.56693,-0.8262 -0.712241,-0.5413 -1.196565,-1.33901 -0.484323,-0.8262 -0.484323,-2.10824 0,-2.10823 1.253543,-3.21932 1.253544,-1.1111 3.618184,-1.1111 1.623909,0 2.934432,0.34188 1.310523,0.34187 2.051253,0.76922 l -0.826199,2.67802 q -0.655262,-0.2564 -1.652399,-0.5413 -0.997137,-0.2849 -2.022764,-0.2849 -1.652398,0 -1.652398,1.28204 0,0.51281 0.484323,0.8262 0.484324,0.31338 1.196565,0.59828 0.712241,0.2564 1.56693,0.56979 0.854689,0.31339 1.566929,0.8262 0.712241,0.48432 1.196565,1.28203 0.484324,0.79771 0.484324,2.05126 0,2.16521 -1.395992,3.41875 -1.367503,1.22506 -4.130997,1.22506 -1.50995,0 -2.848963,-0.39886 -1.310523,-0.37036 -2.136722,-0.88318 l 1.025626,-2.76349 q 0.655262,0.37036 1.737868,0.74073 1.082606,0.34187 2.222191,0.34187 0.826199,0 1.310523,-0.31338 0.512814,-0.31339 0.512814,-1.05412 z" />
      <path
         id="path4518"
         style="font-style:normal;font-variant:normal;font-weight:bold;font-stretch:normal;font-family:'PT Sans';-inkscape-font-specification:'PT Sans Bold';fill:#ffffff;stroke-width:0.71224076"
         d="m 94.194191,118.01479 0.427344,-3.96006 h -0.170938 l -1.225054,3.19084 -4.244955,7.43579 h -1.253544 l -4.472872,-7.46428 -1.253544,-3.16235 H 81.85818 l 0.569793,3.93157 v 10.37022 h -3.703652 v -19.94274 h 3.561204 l 5.327561,9.11668 0.940158,2.27917 h 0.113958 l 0.854689,-2.33615 5.042665,-9.0597 h 3.532714 v 19.94274 h -3.903079 z" />
      <path
         id="path4520"
         style="font-style:normal;font-variant:normal;font-weight:bold;font-stretch:normal;font-family:'PT Sans';-inkscape-font-specification:'PT Sans Bold';fill:#ffffff;stroke-width:0.71224076"
         d="m 112.84867,127.13147 q -0.85469,0.68375 -2.33615,1.16807 -1.45297,0.45584 -3.10537,0.45584 -3.44725,0 -5.04267,-1.99428 -1.59541,-2.02276 -1.59541,-5.52699 0,-3.76063 1.79484,-5.64094 1.79485,-1.88032 5.04267,-1.88032 1.0826,0 2.10823,0.2849 1.02563,0.28489 1.82334,0.94016 0.79771,0.65526 1.28203,1.76635 0.48432,1.1111 0.48432,2.7635 0,0.59828 -0.0855,1.28203 -0.057,0.68375 -0.19942,1.42448 h -8.54689 q 0.0855,1.79485 0.91167,2.70652 0.85468,0.91166 2.735,0.91166 1.16808,0 2.07974,-0.34187 0.94016,-0.37037 1.42449,-0.74073 z m -5.29907,-10.4557 q -1.45297,0 -2.16521,0.88318 -0.68376,0.85469 -0.8262,2.30766 h 5.29907 q 0.11396,-1.53844 -0.48433,-2.36464 -0.56979,-0.8262 -1.82333,-0.8262 z" />
      <path
         id="path4522"
         style="font-style:normal;font-variant:normal;font-weight:bold;font-stretch:normal;font-family:'PT Sans';-inkscape-font-specification:'PT Sans Bold';fill:#ffffff;stroke-width:0.71224076"
         d="m 127.14913,127.13147 q -0.85469,0.68375 -2.33615,1.16807 -1.45297,0.45584 -3.10537,0.45584 -3.44724,0 -5.04266,-1.99428 -1.59542,-2.02276 -1.59542,-5.52699 0,-3.76063 1.79484,-5.64094 1.79485,-1.88032 5.04267,-1.88032 1.0826,0 2.10823,0.2849 1.02563,0.28489 1.82334,0.94016 0.79771,0.65526 1.28203,1.76635 0.48432,1.1111 0.48432,2.7635 0,0.59828 -0.0855,1.28203 -0.057,0.68375 -0.19943,1.42448 h -8.54689 q 0.0855,1.79485 0.91167,2.70652 0.85469,0.91166 2.735,0.91166 1.16808,0 2.07974,-0.34187 0.94016,-0.37037 1.42449,-0.74073 z m -5.29907,-10.4557 q -1.45297,0 -2.16521,0.88318 -0.68375,0.85469 -0.8262,2.30766 h 5.29907 q 0.11396,-1.53844 -0.48432,-2.36464 -0.5698,-0.8262 -1.82334,-0.8262 z" />
      <path
         id="path4524"
         style="font-style:normal;font-variant:normal;font-weight:bold;font-stretch:normal;font-family:'PT Sans';-inkscape-font-specification:'PT Sans Bold';fill:#ffffff;stroke-width:0.71224076"
         d="m 128.7392,114.11171 h 1.96579 v -2.67803 l 3.70365,-1.05412 v 3.73215 h 3.47573 v 3.13386 h -3.47573 v 5.47 q 0,1.48147 0.28489,2.13673 0.31339,0.62677 1.13959,0.62677 0.56979,0 0.96865,-0.11396 0.42734,-0.11396 0.94015,-0.34188 l 0.65527,2.84897 q -0.76922,0.37036 -1.79485,0.62677 -1.02563,0.25641 -2.07974,0.25641 -1.96579,0 -2.90595,-0.99714 -0.91166,-1.02563 -0.91166,-3.33329 v -7.17938 h -1.96579 z" />
      <path
         id="path4526"
         style="font-style:normal;font-variant:normal;font-weight:bold;font-stretch:normal;font-family:'PT Sans';-inkscape-font-specification:'PT Sans Bold';fill:#ffffff;stroke-width:0.71224076"
         d="m 159.32327,113.28551 q 0,1.45297 -0.54131,2.93443 -0.51281,1.48146 -1.33901,2.90594 -0.79771,1.42448 -1.79485,2.7635 -0.96864,1.31052 -1.9088,2.42161 l -1.50995,1.16808 v 0.14245 l 2.05125,-0.39886 h 5.47001 v 3.13386 h -11.99413 v -1.9088 q 0.68375,-0.71224 1.53844,-1.6524 0.85469,-0.96865 1.70937,-2.02277 0.88318,-1.0826 1.70938,-2.22219 0.8262,-1.13958 1.48146,-2.27917 0.65526,-1.16807 1.02563,-2.25068 0.39885,-1.0826 0.39885,-2.05125 0,-1.16808 -0.68375,-1.90881 -0.65526,-0.76922 -2.10823,-0.76922 -0.91167,0 -1.88031,0.39886 -0.94016,0.37036 -1.59542,0.96864 l -1.48146,-2.62104 q 1.11109,-0.91167 2.50708,-1.45297 1.42448,-0.5698 3.33329,-0.5698 1.22505,0 2.25068,0.34188 1.02563,0.34188 1.76636,0.99714 0.74073,0.65526 1.16807,1.6524 0.42735,0.96864 0.42735,2.27917 z" />
      <path
         id="path4528"
         style="font-style:normal;font-variant:normal;font-weight:bold;font-stretch:normal;font-family:'PT Sans';-inkscape-font-specification:'PT Sans Bold';fill:#ffffff;stroke-width:0.71224076"
         d="m 163.06698,118.35666 q 0,-5.24209 1.79485,-7.77767 1.79484,-2.56407 5.15662,-2.56407 3.58969,0 5.27058,2.53558 1.68089,2.50709 1.68089,7.80616 0,5.27058 -1.82334,7.83465 -1.79484,2.56407 -5.15662,2.56407 -3.5612,0 -5.24209,-2.67803 -1.68089,-2.70651 -1.68089,-7.72069 z m 3.70365,0 q 0,3.47574 0.74073,5.38454 0.76922,1.88032 2.50709,1.88032 1.68089,0 2.45011,-1.73787 0.79771,-1.73787 0.79771,-5.52699 0,-3.44724 -0.74073,-5.32756 -0.74073,-1.88032 -2.53558,-1.88032 -1.70938,0 -2.4786,1.76636 -0.74073,1.76636 -0.74073,5.44152 z" />
      <path
         id="path4530"
         style="font-style:normal;font-variant:normal;font-weight:bold;font-stretch:normal;font-family:'PT Sans';-inkscape-font-specification:'PT Sans Bold';fill:#ffffff;stroke-width:0.71224076"
         d="m 191.59667,113.28551 q 0,1.45297 -0.5413,2.93443 -0.51281,1.48146 -1.33901,2.90594 -0.79771,1.42448 -1.79485,2.7635 -0.96865,1.31052 -1.9088,2.42161 l -1.50995,1.16808 v 0.14245 l 2.05125,-0.39886 h 5.47001 v 3.13386 h -11.99414 v -1.9088 q 0.68375,-0.71224 1.53844,-1.6524 0.85469,-0.96865 1.70938,-2.02277 0.88318,-1.0826 1.70938,-2.22219 0.8262,-1.13958 1.48146,-2.27917 0.65526,-1.16807 1.02563,-2.25068 0.39885,-1.0826 0.39885,-2.05125 0,-1.16808 -0.68375,-1.90881 -0.65526,-0.76922 -2.10823,-0.76922 -0.91167,0 -1.88032,0.39886 -0.94016,0.37036 -1.59542,0.96864 l -1.48146,-2.62104 q 1.1111,-0.91167 2.50709,-1.45297 1.42448,-0.5698 3.33329,-0.5698 1.22505,0 2.25068,0.34188 1.02562,0.34188 1.76635,0.99714 0.74074,0.65526 1.16808,1.6524 0.42734,0.96864 0.42734,2.27917 z" />
      <path
         id="path4532"
         style="font-style:normal;font-variant:normal;font-weight:bold;font-stretch:normal;font-family:'PT Sans';-inkscape-font-specification:'PT Sans Bold';fill:#ffffff;stroke-width:0.71224076"
         d="m 195.3404,118.35666 q 0,-5.24209 1.79485,-7.77767 1.79485,-2.56407 5.15662,-2.56407 3.5897,0 5.27059,2.53558 1.68088,2.50709 1.68088,7.80616 0,5.27058 -1.82333,7.83465 -1.79485,2.56407 -5.15663,2.56407 -3.5612,0 -5.24209,-2.67803 -1.68089,-2.70651 -1.68089,-7.72069 z m 3.70366,0 q 0,3.47574 0.74073,5.38454 0.76922,1.88032 2.50708,1.88032 1.68089,0 2.45011,-1.73787 0.79771,-1.73787 0.79771,-5.52699 0,-3.44724 -0.74073,-5.32756 -0.74073,-1.88032 -2.53558,-1.88032 -1.70937,0 -2.47859,1.76636 -0.74073,1.76636 -0.74073,5.44152 z" />
    </g>
  </g>
</svg>
